g 302_zhalan01
v 0.0999 0.7722 0.362
v 0.1004 1.0463 0.4413
v 0.0998 1.044 0.3535
v -0.0881 1.0463 0.4438
v -0.0886 0.7721 0.3633
v -0.0887 1.044 0.3547
v 0.1192 0.4244 0.3469
v -0.1556 0.4132 1.1282
v 0.1863 0.4132 1.1673
v -0.1092 0.4244 0.3512
v -0.1013 0.4225 -0.4387
v 0.1308 0.4225 -0.4397
v -0.1236 0.4146 -0.8863
v 0.1537 0.4146 -0.9161
v -0.1458 0.4081 -1.1052
v 0.1765 0.4081 -1.1638
v -0.1458 0.4081 -1.1052
v 0.1765 0.5625 -1.1564
v -0.1458 0.5627 -1.0978
v 0.1765 0.4081 -1.1638
v -0.1236 0.4146 -0.8863
v -0.1458 0.5627 -1.0978
v -0.1236 0.5676 -0.8863
v -0.1458 0.4081 -1.1052
v -0.1556 0.5676 1.1282
v 0.1863 0.4132 1.1673
v -0.1556 0.4132 1.1282
v 0.1863 0.5676 1.1673
v 0.1863 0.7221 1.1673
v -0.1556 0.7221 1.1282
v 0.1863 0.5676 1.1673
v 0.1192 0.4244 0.3469
v 0.1863 0.4132 1.1673
v 0.1192 0.5676 0.3469
v 0.1192 0.7109 0.3469
v 0.1863 0.7221 1.1673
v 0.1192 0.5676 0.3469
v 0.1308 0.4225 -0.4397
v 0.1308 0.7128 -0.4397
v 0.1308 0.5676 -0.4397
v 0.1537 0.4146 -0.9161
v 0.1537 0.5676 -0.9161
v 0.1537 0.7175 -0.9161
v 0.1765 0.5625 -1.1564
v 0.1765 0.4081 -1.1638
v -0.1556 0.7221 1.1282
v 0.1192 0.7109 0.3469
v 0.1863 0.7221 1.1673
v -0.1092 0.7109 0.3512
v -0.1013 0.7128 -0.4387
v 0.1308 0.7128 -0.4397
v -0.1236 0.7175 -0.8863
v 0.1537 0.7175 -0.9161
v -0.1382 0.7303 -1.1087
v 0.1842 0.7303 -1.1673
v 0.1101 0.7856 -0.6307
v 0.1397 1.1452 -0.4152
v 0.1428 1.1817 -0.6935
v 0.1085 0.7798 -0.4925
v 0.1086 0.3336 -0.5117
v 0.1101 0.3288 -0.6496
v 0.1342 -0.0046 -0.4875
v 0.1357 0.0035 -0.6989
v 0.1357 0.0035 -0.6989
v -0.0784 0.3288 -0.6517
v -0.1054 -0.0043 -0.7013
v 0.1101 0.3288 -0.6496
v -0.0785 0.7856 -0.6328
v 0.1101 0.7856 -0.6307
v -0.1095 1.1818 -0.6963
v 0.1428 1.1817 -0.6935
v -0.0799 0.3337 -0.5138
v 0.1342 -0.0046 -0.4875
v -0.1069 -0.0125 -0.4899
v 0.1086 0.3336 -0.5117
v 0.1085 0.7798 -0.4925
v -0.08 0.7799 -0.4946
v 0.1397 1.1452 -0.4152
v -0.1126 1.1453 -0.418
v -0.1126 1.1453 -0.418
v 0.1428 1.1817 -0.6935
v 0.1397 1.1452 -0.4152
v -0.1095 1.1818 -0.6963
v -0.1126 1.1453 -0.418
v -0.0785 0.7856 -0.6328
v -0.1095 1.1818 -0.6963
v -0.08 0.7799 -0.4946
v -0.0799 0.3337 -0.5138
v -0.0784 0.3288 -0.6517
v -0.1069 -0.0125 -0.4899
v -0.1054 -0.0043 -0.7013
v -0.0954 -0.0209 0.5521
v 0.1009 0.3117 0.4944
v 0.113 -0.0277 0.5507
v -0.0876 0.3117 0.4956
v 0.1009 0.7677 0.4979
v -0.0877 0.7677 0.4991
v 0.101 1.0443 0.5589
v -0.0875 1.0442 0.5602
v 0.1 0.3133 0.3582
v -0.0979 -0.0136 0.3519
v 0.1104 -0.0204 0.3505
v -0.0885 0.3132 0.3594
v -0.0886 0.7721 0.3633
v 0.0999 0.7722 0.362
v -0.0887 1.044 0.3547
v 0.0998 1.044 0.3535
v 0.0998 1.044 0.3535
v -0.0961 1.1579 0.3377
v -0.0887 1.044 0.3547
v 0.107 1.1579 0.3364
v 0.107 1.1579 0.3364
v -0.0954 1.1575 0.4375
v -0.0961 1.1579 0.3377
v 0.1077 1.1576 0.4376
v 0.1009 0.3117 0.4944
v 0.1104 -0.0204 0.3505
v 0.113 -0.0277 0.5507
v 0.1 0.3133 0.3582
v 0.1009 0.7677 0.4979
v 0.0999 0.7722 0.362
v 0.1004 1.0463 0.4413
v 0.101 1.0443 0.5589
v -0.0979 -0.0136 0.3519
v -0.0876 0.3117 0.4956
v -0.0954 -0.0209 0.5521
v -0.0885 0.3132 0.3594
v -0.0877 0.7677 0.4991
v -0.0886 0.7721 0.3633
v -0.0881 1.0463 0.4438
v -0.0875 1.0442 0.5602
v 0.1842 0.5813 -1.1605
v 0.1537 0.7175 -0.9161
v 0.1842 0.7303 -1.1673
v 0.1537 0.5676 -0.9161
v -0.1382 0.7303 -1.1087
v 0.1842 0.5813 -1.1605
v 0.1842 0.7303 -1.1673
v -0.1382 0.5813 -1.1019
v -0.1236 0.5676 -0.8863
v -0.1013 0.4225 -0.4387
v -0.1236 0.4146 -0.8863
v -0.1013 0.5676 -0.4387
v -0.1013 0.7128 -0.4387
v -0.1236 0.7175 -0.8863
v -0.1382 0.5813 -1.1019
v -0.1382 0.7303 -1.1087
v -0.1013 0.5676 -0.4387
v -0.1092 0.4244 0.3512
v -0.1092 0.7109 0.3512
v -0.1092 0.5676 0.3512
v -0.1092 0.5676 0.3512
v -0.1556 0.4132 1.1282
v -0.1556 0.7221 1.1282
v -0.1556 0.5676 1.1282
v 0.1537 0.5676 -0.9161
v -0.1382 0.5813 -1.1019
v -0.1236 0.5676 -0.8863
v 0.1842 0.5813 -1.1605
v 0.1537 0.5676 -0.9161
v -0.1458 0.5627 -1.0978
v 0.1765 0.5625 -1.1564
v -0.1236 0.5676 -0.8863
v 0.0998 1.044 0.3535
v 0.1077 1.1576 0.4376
v 0.107 1.1579 0.3364
v 0.1004 1.0463 0.4413
v 0.101 1.0443 0.5589
v 0.1077 1.1581 0.4645
v 0.1085 1.1768 0.6063
v -0.0954 1.1575 0.4375
v -0.0887 1.044 0.3547
v -0.0961 1.1579 0.3377
v -0.0881 1.0463 0.4438
v -0.0954 1.1579 0.4643
v -0.0875 1.0442 0.5602
v -0.0946 1.1768 0.6076
v 0.1085 1.1768 0.6063
v -0.0875 1.0442 0.5602
v -0.0946 1.1768 0.6076
v 0.101 1.0443 0.5589
v -0.0946 1.1768 0.6076
v 0.1077 1.1581 0.4645
v 0.1085 1.1768 0.6063
v -0.0954 1.1579 0.4643
v 0.1004 1.0463 0.4413
v -0.0954 1.1575 0.4375
v 0.1077 1.1576 0.4376
v -0.0881 1.0463 0.4438
v -0.0954 1.1579 0.4643
v 0.1004 1.0463 0.4413
v 0.1077 1.1581 0.4645
v -0.0881 1.0463 0.4438
vt 0.58691406 0.78027344
vt 0.5678711 0.87353516
vt 0.5966797 0.87353516
vt 0.6894531 0.8647461
vt 0.65234375 0.77734375
vt 0.65966797 0.86816406
vt 0.3166504 0.3935547
vt 0.4465332 0.14477539
vt 0.33618164 0.11608887
vt 0.39379883 0.39746094
vt 0.39111328 0.65625
vt 0.3125 0.6586914
vt 0.4086914 0.80322266
vt 0.31689453 0.81933594
vt 0.42236328 0.8754883
vt 0.32299805 0.9038086
vt 0.014251709 0.87158203
vt 0.06201172 0.98339844
vt 0.06628418 0.8754883
vt 0.010002136 0.9819336
vt 0.022216797 0.79833984
vt 0.06628418 0.8754883
vt 0.07342529 0.8022461
vt 0.014251709 0.87158203
vt 0.07043457 0.12927246
vt 0.010002136 0.017669678
vt 0.018798828 0.13305664
vt 0.061767578 0.013832092
vt 0.113586426 0.010002136
vt 0.12188721 0.12561035
vt 0.28515625 0.11352539
vt 0.3166504 0.3935547
vt 0.33618164 0.11608887
vt 0.26782227 0.3918457
vt 0.21899414 0.39013672
vt 0.23425293 0.11035156
vt 0.26782227 0.3918457
vt 0.3125 0.6586914
vt 0.21435547 0.6582031
vt 0.26342773 0.6582031
vt 0.31689453 0.81933594
vt 0.26586914 0.81884766
vt 0.21582031 0.8208008
vt 0.27075195 0.9008789
vt 0.32299805 0.9038086
vt 0.12188721 0.12561035
vt 0.21899414 0.39013672
vt 0.23425293 0.11035156
vt 0.14123535 0.3876953
vt 0.13598633 0.65527344
vt 0.21435547 0.6582031
vt 0.12322998 0.8071289
vt 0.21582031 0.8208008
vt 0.12017822 0.8881836
vt 0.21154785 0.90722656
vt 0.671875 0.27929688
vt 0.6274414 0.41455078
vt 0.71777344 0.41015625
vt 0.62402344 0.28588867
vt 0.6118164 0.12878418
vt 0.6591797 0.122924805
vt 0.60009766 0.013282776
vt 0.6669922 0.010002136
vt 0.6669922 0.010002136
vt 0.7236328 0.123535156
vt 0.7470703 0.014518738
vt 0.6591797 0.122924805
vt 0.7348633 0.26611328
vt 0.671875 0.27929688
vt 0.79345703 0.3828125
vt 0.71777344 0.41015625
vt 0.54785156 0.13623047
vt 0.60009766 0.013282776
vt 0.5229492 0.019821167
vt 0.6118164 0.12878418
vt 0.62402344 0.28588867
vt 0.55810547 0.28735352
vt 0.6274414 0.41455078
vt 0.54833984 0.41601562
vt 0.63183594 0.5
vt 0.71777344 0.41015625
vt 0.6274414 0.41455078
vt 0.7246094 0.4946289
vt 0.54833984 0.41601562
vt 0.51171875 0.2841797
vt 0.45532227 0.40673828
vt 0.55810547 0.28735352
vt 0.54785156 0.13623047
vt 0.50097656 0.14099121
vt 0.5229492 0.019821167
vt 0.45532227 0.0385437
vt 0.45532227 0.5214844
vt 0.5390625 0.625
vt 0.52197266 0.50878906
vt 0.47631836 0.6298828
vt 0.54248047 0.7807617
vt 0.4790039 0.77734375
vt 0.5288086 0.87353516
vt 0.46606445 0.86816406
vt 0.58691406 0.6245117
vt 0.6542969 0.515625
vt 0.58691406 0.51171875
vt 0.6489258 0.6245117
vt 0.65234375 0.77734375
vt 0.58691406 0.78027344
vt 0.65966797 0.86816406
vt 0.5966797 0.87353516
vt 0.5966797 0.87353516
vt 0.6640625 0.9067383
vt 0.65966797 0.86816406
vt 0.6015625 0.91259766
vt 0.6015625 0.91259766
vt 0.5683594 0.98291016
vt 0.6123047 0.97998047
vt 0.5683594 0.9165039
vt 0.5390625 0.625
vt 0.58691406 0.51171875
vt 0.52197266 0.50878906
vt 0.58691406 0.6245117
vt 0.54248047 0.7807617
vt 0.58691406 0.78027344
vt 0.5678711 0.87353516
vt 0.5288086 0.87353516
vt 0.6542969 0.515625
vt 0.6948242 0.6245117
vt 0.7211914 0.5161133
vt 0.6489258 0.6245117
vt 0.6977539 0.7729492
vt 0.65234375 0.77734375
vt 0.6894531 0.8647461
vt 0.72802734 0.8598633
vt 0.2602539 0.9003906
vt 0.21582031 0.8208008
vt 0.21154785 0.90722656
vt 0.26586914 0.81884766
vt 0.12017822 0.8881836
vt 0.06738281 0.9838867
vt 0.117492676 0.9838867
vt 0.07128906 0.8754883
vt 0.07342529 0.8022461
vt 0.03817749 0.6508789
vt 0.022216797 0.79833984
vt 0.08709717 0.65283203
vt 0.13598633 0.65527344
vt 0.12322998 0.8071289
vt 0.07128906 0.8754883
vt 0.12017822 0.8881836
vt 0.08709717 0.65283203
vt 0.04434204 0.39038086
vt 0.14123535 0.3876953
vt 0.09259033 0.38916016
vt 0.09259033 0.38916016
vt 0.018798828 0.13305664
vt 0.12188721 0.12561035
vt 0.07043457 0.12927246
vt 0.8959961 0.09100342
vt 0.80371094 0.019851685
vt 0.8022461 0.09259033
vt 0.9135742 0.010002136
vt 0.8959961 0.09100342
vt 0.80371094 0.1640625
vt 0.9135742 0.17016602
vt 0.8022461 0.09259033
vt 0.5966797 0.87353516
vt 0.5683594 0.9165039
vt 0.6015625 0.91259766
vt 0.5678711 0.87353516
vt 0.5288086 0.87353516
vt 0.5625 0.91748047
vt 0.5214844 0.9248047
vt 0.6982422 0.9042969
vt 0.65966797 0.86816406
vt 0.6640625 0.9067383
vt 0.6894531 0.8647461
vt 0.70654297 0.90234375
vt 0.72802734 0.8598633
vt 0.74853516 0.90234375
vt 0.5214844 0.9248047
vt 0.46606445 0.86816406
vt 0.45532227 0.9135742
vt 0.5288086 0.87353516
vt 0.50634766 0.9902344
vt 0.5625 0.91748047
vt 0.5214844 0.9248047
vt 0.55566406 0.984375
vt 0.20056152 0.04837036
vt 0.13464355 0.08569336
vt 0.20288086 0.08581543
vt 0.13720703 0.04827881
vt 0.13464355 0.010139465
vt 0.20056152 0.04837036
vt 0.20288086 0.010002136
vt 0.13720703 0.04827881
vn 1 0.00020003319 -0.0066986084
vn 1 0.00020003319 -0.0066986084
vn 1 0.00020003319 -0.0066986084
vn -1 -0.00020003319 0.0066986084
vn -1 -0.00020003319 0.0066986084
vn -1 -0.00020003319 0.0066986084
vn -0 -1 0
vn -0 -1 0
vn -0 -1 0
vn -0 -1 0
vn -0 -1 0
vn -0 -1 0
vn 0.0041007996 -0.9995117 0.02810669
vn 0.0041007996 -0.9995117 0.02810669
vn -0 -1 0
vn -0 -1 0
vn -0.17895508 0 -0.9838867
vn -0.17871094 0.047088623 -0.98291016
vn -0.17871094 0.047088623 -0.98291016
vn -0.17895508 0 -0.9838867
vn -0.9946289 -0.002500534 0.10290527
vn -0.9946289 -0.002500534 0.10290527
vn -0.9946289 -0.002500534 0.10290527
vn -0.9980469 0 0.06402588
vn -0.11352539 0 0.99365234
vn -0.11352539 0 0.99365234
vn -0.11352539 0 0.99365234
vn -0.11352539 0 0.99365234
vn -0.11352539 0 0.99365234
vn -0.11352539 0 0.99365234
vn 0.99658203 0 -0.08148193
vn 0.9995117 0 -0.03540039
vn 0.99658203 0 -0.08380127
vn 0.99658203 0 -0.08148193
vn 0.9995117 0 -0.03540039
vn 0.99658203 0 -0.08380127
vn 1 0 0.014801025
vn 0.99902344 0 0.038909912
vn 0.99902344 0 0.038909912
vn 0.99902344 0 0.047912598
vn 0.99902344 0 0.047912598
vn 0.99902344 0 0.047912598
vn 0.99902344 0 0.047912598
vn 0.99560547 -0.002199173 0.09338379
vn 0.9980469 0 0.064819336
vn -0 1 0
vn -0 1 0
vn -0 1 0
vn -0 1 0
vn -0 1 0
vn -0 1 0
vn 0.00059986115 1 0.010002136
vn 0.00059986115 1 0.010002136
vn -0 1 0
vn -0 1 0
vn 0.9995117 -0.036102295 0.010696411
vn 0.99658203 -0.08001709 0.010101318
vn 0.99658203 -0.08001709 0.010101318
vn 0.99853516 -0.048583984 0.010498047
vn 1 -0.0012998581 0.009796143
vn 1 -0.0016002655 0.009498596
vn 1 -0.002500534 0.008201599
vn 1 -0.002500534 0.008201599
vn 0.00969696 0.11651611 -0.99316406
vn 0.010398865 0.08239746 -0.99658203
vn 0.00969696 0.11651611 -0.99316406
vn 0.010398865 0.08239746 -0.99658203
vn 0.011100769 -0.05050659 -0.99853516
vn 0.011100769 -0.05050659 -0.99853516
vn 0.011001587 -0.14440918 -0.9892578
vn 0.011001587 -0.14440918 -0.9892578
vn -0.011802673 -0.0023994446 1
vn -0.012397766 0.04309082 0.99902344
vn -0.012397766 0.04309082 0.99902344
vn -0.011802673 -0.0023994446 1
vn -0.011100769 -0.12939453 0.9916992
vn -0.011100769 -0.12939453 0.9916992
vn -0.011001587 -0.20581055 0.9785156
vn -0.011001587 -0.20581055 0.9785156
vn -0.0010995865 0.9916992 0.12988281
vn -0.0010995865 0.9916992 0.12988281
vn -0.0010995865 0.9916992 0.12988281
vn -0.0010995865 0.9916992 0.12988281
vn -0.99658203 -0.07928467 -0.01210022
vn -0.9995117 -0.03540039 -0.01159668
vn -0.99658203 -0.07928467 -0.01210022
vn -0.99902344 -0.047912598 -0.011703491
vn -1 0.0010995865 -0.009796143
vn -1 0.0011997223 -0.009399414
vn -1 0.0018997192 -0.008201599
vn -1 0.0018997192 -0.008201599
vn 0.009902954 0.16894531 0.98535156
vn 0.008201599 0.06762695 0.9975586
vn 0.009902954 0.16894531 0.98535156
vn 0.0084991455 0.08312988 0.99658203
vn 0.0066986084 -0.074523926 0.9970703
vn 0.0066986084 -0.074523926 0.9970703
vn 0.0065994263 -0.2154541 0.9765625
vn 0.0065994263 -0.2154541 0.9765625
vn -0.0069999695 0.0070991516 -1
vn -0.0073013306 -0.006000519 -1
vn -0.0073013306 -0.006000519 -1
vn -0.0070991516 0.0051994324 -1
vn -0.0066986084 -0.013900757 -1
vn -0.0066986084 -0.013900757 -1
vn -0.0066986084 -0.03149414 -0.9995117
vn -0.0066986084 -0.03149414 -0.9995117
vn -0.0065994263 -0.14794922 -0.98876953
vn -0.0066986084 -0.04598999 -0.99902344
vn -0.0065994263 -0.14794922 -0.98876953
vn -0.0066986084 -0.04598999 -0.99902344
vn -0.00069999695 0.9980469 -0.064086914
vn -0.00040006638 1 0.0035991669
vn -0.00069999695 0.9980469 -0.064086914
vn -0.00040006638 1 0.0035991669
vn 0.98876953 -0.1484375 -0.02470398
vn 0.96728516 -0.2512207 -0.037109375
vn 0.96728516 -0.2512207 -0.037109375
vn 0.99365234 -0.109802246 -0.020004272
vn 1 0.00020003319 -0.0066986084
vn 1 0.00020003319 -0.0066986084
vn 1 0.00029993057 -0.0059013367
vn 1 0.00029993057 -0.0059013367
vn -0.9663086 0.2548828 0.037384033
vn -0.98828125 0.15063477 0.024902344
vn -0.9663086 0.2548828 0.037384033
vn -0.99365234 0.111328125 0.020202637
vn -1 -0.00020003319 0.0066986084
vn -1 -0.00020003319 0.0066986084
vn -1 -0.00029993057 0.0059013367
vn -1 -0.00029993057 0.0059013367
vn 0.9926758 0.0027999878 0.12237549
vn 0.9926758 0.0027999878 0.12237549
vn 0.9980469 0 0.064819336
vn 0.9926758 0.0027999878 0.12237549
vn -0.17895508 0 -0.9838867
vn -0.17871094 -0.04510498 -0.98291016
vn -0.17895508 0 -0.9838867
vn -0.17871094 -0.04510498 -0.98291016
vn -0.99853516 0 0.049591064
vn -0.9995117 0 0.0256958
vn -0.99853516 0 0.049591064
vn -0.99853516 0 0.049591064
vn -0.9995117 0 0.0256958
vn -0.99853516 0 0.049591064
vn -0.9975586 0.0015001297 0.066589355
vn -0.9980469 0 0.06402588
vn -1 0 -0.010002136
vn -0.99902344 0 -0.040100098
vn -0.99902344 0 -0.040100098
vn -1 0 -0.010002136
vn -0.9980469 0 -0.059509277
vn -0.9975586 0 -0.06750488
vn -0.9975586 0 -0.06750488
vn -0.9980469 0 -0.059509277
vn -0.008796692 -0.9980469 -0.059692383
vn -0.008796692 -0.9980469 -0.059692383
vn -0.008796692 -0.9980469 -0.059692383
vn -0.008796692 -0.9980469 -0.059692383
vn -0.0030002594 0.9995117 -0.022399902
vn -0.0030002594 0.9995117 -0.022399902
vn -0.0030002594 0.9995117 -0.022399902
vn -0.0030002594 0.9995117 -0.022399902
vn 0.9980469 -0.06451416 -0.00630188
vn 0.9980469 -0.06451416 -0.00630188
vn 1 0.00020003319 -0.0066986084
vn 0.9980469 -0.06451416 -0.00630188
vn 0.9980469 -0.05999756 -0.0012998581
vn 0.9980469 -0.05999756 -0.0012998581
vn 1 0.00020003319 -0.0066986084
vn -0.9980469 -0.064697266 0.007598877
vn -0.9980469 -0.064697266 0.007598877
vn -1 -0.00020003319 0.0066986084
vn -0.9980469 -0.064697266 0.007598877
vn -0.9980469 -0.06149292 0.00920105
vn -0.9980469 -0.06149292 0.00920105
vn -1 -0.00020003319 0.0066986084
vn 0.0066986084 -0.13085938 0.99121094
vn 0.006401062 -0.33666992 0.94140625
vn 0.0066986084 -0.13085938 0.99121094
vn 0.006401062 -0.33666992 0.94140625
vn -0.00069999695 0.9980469 -0.064086914
vn -0.00080013275 0.99121094 -0.13085938
vn -0.00069999695 0.9980469 -0.064086914
vn -0.00080013275 0.99121094 -0.13085938
vn 0.0059013367 0.045013428 0.99902344
vn 0.0059013367 0.045013428 0.99902344
vn 0.0059013367 0.045013428 0.99902344
vn 0.0059013367 0.045013428 0.99902344
vn -0.0059013367 0.19213867 -0.9814453
vn -0.0059013367 0.19213867 -0.9814453
vn -0.0059013367 0.19213867 -0.9814453
vn -0.0059013367 0.19213867 -0.9814453
g 302_zhalan01_0
f 3/3/3 2/2/2 1/1/1
f 6/6/6 5/5/5 4/4/4
f 9/9/9 8/8/8 7/7/7
f 10/10/10 7/7/7 8/8/8
f 10/10/10 11/11/11 7/7/7
f 12/12/12 7/7/7 11/11/11
f 11/11/11 13/13/13 12/12/12
f 14/14/14 12/12/12 13/13/13
f 13/13/13 15/15/15 14/14/14
f 16/16/16 14/14/14 15/15/15
f 19/19/19 18/18/18 17/17/17
f 20/20/20 17/17/17 18/18/18
f 23/23/23 22/22/22 21/21/21
f 24/24/24 21/21/21 22/22/22
f 27/27/27 26/26/26 25/25/25
f 28/28/28 25/25/25 26/26/26
f 28/28/28 29/29/29 25/25/25
f 30/30/30 25/25/25 29/29/29
f 33/33/33 32/32/32 31/31/31
f 34/34/34 31/31/31 32/32/32
f 34/34/34 35/35/35 31/31/31
f 36/36/36 31/31/31 35/35/35
f 32/32/32 38/38/38 37/37/37
f 35/35/35 37/37/37 39/39/39
f 40/40/40 37/37/37 38/38/38
f 40/40/40 39/39/39 37/37/37
f 38/38/38 41/41/41 40/40/40
f 40/40/40 42/42/42 39/39/39
f 42/42/42 40/40/40 41/41/41
f 43/43/43 39/39/39 42/42/42
f 42/42/42 41/41/41 44/44/44
f 45/45/45 44/44/44 41/41/41
f 48/48/48 47/47/47 46/46/46
f 49/49/49 46/46/46 47/47/47
f 49/49/49 47/47/47 50/50/50
f 51/51/51 50/50/50 47/47/47
f 50/50/50 51/51/51 52/52/52
f 53/53/53 52/52/52 51/51/51
f 52/52/52 53/53/53 54/54/54
f 55/55/55 54/54/54 53/53/53
f 58/58/58 57/57/57 56/56/56
f 59/59/59 56/56/56 57/57/57
f 59/59/59 60/60/60 56/56/56
f 61/61/61 56/56/56 60/60/60
f 60/60/60 62/62/62 61/61/61
f 63/63/63 61/61/61 62/62/62
f 66/66/66 65/65/65 64/64/64
f 67/67/67 64/64/64 65/65/65
f 65/65/65 68/68/68 67/67/67
f 69/69/69 67/67/67 68/68/68
f 68/68/68 70/70/70 69/69/69
f 71/71/71 69/69/69 70/70/70
f 74/74/74 73/73/73 72/72/72
f 75/75/75 72/72/72 73/73/73
f 75/75/75 76/76/76 72/72/72
f 77/77/77 72/72/72 76/76/76
f 76/76/76 78/78/78 77/77/77
f 79/79/79 77/77/77 78/78/78
f 82/82/82 81/81/81 80/80/80
f 83/83/83 80/80/80 81/81/81
f 86/86/86 85/85/85 84/84/84
f 87/87/87 84/84/84 85/85/85
f 87/87/87 85/85/85 88/88/88
f 89/89/89 88/88/88 85/85/85
f 88/88/88 89/89/89 90/90/90
f 91/91/91 90/90/90 89/89/89
f 94/94/94 93/93/93 92/92/92
f 95/95/95 92/92/92 93/93/93
f 93/93/93 96/96/96 95/95/95
f 97/97/97 95/95/95 96/96/96
f 96/96/96 98/98/98 97/97/97
f 99/99/99 97/97/97 98/98/98
f 102/102/102 101/101/101 100/100/100
f 103/103/103 100/100/100 101/101/101
f 103/103/103 104/104/104 100/100/100
f 105/105/105 100/100/100 104/104/104
f 104/104/104 106/106/106 105/105/105
f 107/107/107 105/105/105 106/106/106
f 110/110/110 109/109/109 108/108/108
f 111/111/111 108/108/108 109/109/109
f 114/114/114 113/113/113 112/112/112
f 115/115/115 112/112/112 113/113/113
f 118/118/118 117/117/117 116/116/116
f 119/119/119 116/116/116 117/117/117
f 116/116/116 119/119/119 120/120/120
f 121/121/121 120/120/120 119/119/119
f 121/121/121 122/122/122 120/120/120
f 123/123/123 120/120/120 122/122/122
f 126/126/126 125/125/125 124/124/124
f 127/127/127 124/124/124 125/125/125
f 125/125/125 128/128/128 127/127/127
f 129/129/129 127/127/127 128/128/128
f 129/129/129 128/128/128 130/130/130
f 131/131/131 130/130/130 128/128/128
f 134/134/134 133/133/133 132/132/132
f 135/135/135 132/132/132 133/133/133
f 138/138/138 137/137/137 136/136/136
f 139/139/139 136/136/136 137/137/137
f 142/142/142 141/141/141 140/140/140
f 143/143/143 140/140/140 141/141/141
f 143/143/143 144/144/144 140/140/140
f 145/145/145 140/140/140 144/144/144
f 140/140/140 145/145/145 146/146/146
f 147/147/147 146/146/146 145/145/145
f 141/141/141 149/149/149 148/148/148
f 144/144/144 148/148/148 150/150/150
f 151/151/151 148/148/148 149/149/149
f 151/151/151 150/150/150 148/148/148
f 149/149/149 153/153/153 152/152/152
f 150/150/150 152/152/152 154/154/154
f 155/155/155 152/152/152 153/153/153
f 155/155/155 154/154/154 152/152/152
f 158/158/158 157/157/157 156/156/156
f 159/159/159 156/156/156 157/157/157
f 162/162/162 161/161/161 160/160/160
f 163/163/163 160/160/160 161/161/161
f 166/166/166 165/165/165 164/164/164
f 167/167/167 164/164/164 165/165/165
f 167/167/167 169/169/169 168/168/168
f 170/170/170 168/168/168 169/169/169
f 173/173/173 172/172/172 171/171/171
f 174/174/174 171/171/171 172/172/172
f 174/174/174 176/176/176 175/175/175
f 177/177/177 175/175/175 176/176/176
f 180/180/180 179/179/179 178/178/178
f 181/181/181 178/178/178 179/179/179
f 184/184/184 183/183/183 182/182/182
f 185/185/185 182/182/182 183/183/183
f 188/188/188 187/187/187 186/186/186
f 189/189/189 186/186/186 187/187/187
f 192/192/192 191/191/191 190/190/190
f 193/193/193 190/190/190 191/191/191
